<?xml version="1.0"?>
<svg xmlns="http://www.w3.org/2000/svg" id="Layer_1" data-name="Layer 1" viewBox="0 0 512 512" width="512" height="512"><title>Call Enquiry</title><g id="_Group_2" data-name=" Group 2"><path d="M397.25,104.94,359.02,82.87,322.26,61.65l-74.99,43.3h-.01v86.6l75,43.31,75-43.31v-86.6ZM322.26,13.58a134.675,134.675,0,1,1-30.3,265.93L240.32,315.7l13.86-51.22a134.689,134.689,0,0,1,68.08-250.9Z" style="fill:#6fe3ff"/><polygon points="397.26 104.95 397.26 191.55 322.26 234.86 322.26 234.85 322.26 148.24 397.25 104.94 397.26 104.95" style="fill:#e5d45a"/><polygon points="322.26 148.24 284.03 126.17 359.02 82.87 397.25 104.94 322.26 148.24" style="fill:#f8ec7d"/><path d="M376.95,431.65c8.66,8.58,8.66,17.41.08,26.32-.07,0-.08.06-.03.03-2.03,2.18-4.09,4.24-6.22,6.33l-71.87-71.86-.22-.22,6.94-6.94c2.86-2.86,7.4-6.31,12.7-6.31,5.21,0,9.5,3.28,12.11,6.14a1.365,1.365,0,0,0,.17.17Z" style="fill:#af593c"/><path d="M298.91,392.47l71.87,71.86c-1.3,1.27-2.64,2.56-4.01,3.9a220.593,220.593,0,0,0-16.23,16.82c-8.5,9.08-18.5,13.37-31.62,13.37-1.26,0-2.61,0-3.87-.08-24.98-1.6-48.19-11.35-65.6-19.68a373.621,373.621,0,0,1-124.13-97.22c-28.67-34.56-47.85-66.52-60.55-100.83-7.82-20.94-10.68-37.26-9.42-52.65a38.587,38.587,0,0,1,11.61-24.97L88.2,181.76l71.9,71.9c-.1.1-.2.19-.3.29-7.06,7.23-13.79,13.96-21.1,20.52-.17.17-.34.25-.43.42-7.23,7.23-5.88,14.3-4.37,19.09.09.25.17.51.25.76,5.97,14.46,14.38,28.09,27.17,44.32l.08.08c23.21,28.59,47.69,50.88,74.68,67.95a114.309,114.309,0,0,0,10.34,5.64c3.03,1.51,5.89,2.94,8.33,4.45.34.17.67.42,1.01.59a18.243,18.243,0,0,0,8.33,2.11c6.98,0,11.35-4.38,12.78-5.81l21.82-21.82Z" style="fill:#e48e66"/><polygon points="359.02 82.87 284.03 126.17 284.02 126.17 247.27 104.95 322.26 61.65 359.02 82.87" style="fill:#e5d45a"/><polygon points="322.26 234.85 322.26 234.86 247.26 191.55 247.26 104.95 247.27 104.95 284.02 126.17 284.03 126.17 322.26 148.24 322.26 234.85" style="fill:#f8ec7d"/><path d="M167.04,220.65c8.91,8.91,8.91,17.15,0,26.07-2.34,2.34-4.61,4.68-6.94,6.94l-71.9-71.9,7.44-7.45c4.12-3.87,8.49-5.97,12.78-5.97,5.3,0,9.59,3.19,12.28,5.88.08.09.17.17.25.26,5.13,4.79,10.01,9.75,15.14,15.05,2.61,2.69,5.3,5.38,7.99,8.16Z" style="fill:#af593c"/></g></svg>
