<svg xmlns="http://www.w3.org/2000/svg" viewBox="0 0 32.571 19">
  <defs>
    <style>
      .cls-1 {
        fill: #ff7474;
      }
    </style>
  </defs>
  <g id="hand-shake" transform="translate(0 -106.666)">
    <g id="Group_23" data-name="Group 23" transform="translate(0 106.666)">
      <g id="Group_22" data-name="Group 22" transform="translate(0 0)">
        <path id="Path_31" data-name="Path 31" class="cls-1" d="M7.871,108.159c-1.086-1.086-5.7-1.357-7.193-1.493a.5.5,0,0,0-.407.136,1.029,1.029,0,0,0-.271.543v12.214a.641.641,0,0,0,.679.679H4.75a.746.746,0,0,0,.679-.407c0-.407,2.443-7.6,2.714-11.129A.542.542,0,0,0,7.871,108.159Z" transform="translate(0 -106.666)"/>
      </g>
    </g>
    <g id="Group_25" data-name="Group 25" transform="translate(11.518 109.516)">
      <g id="Group_24" data-name="Group 24" transform="translate(0 0)">
        <path id="Path_32" data-name="Path 32" class="cls-1" d="M191.936,153.367c-1.357-.407-2.579-.95-3.664-1.357-2.443-1.086-3.529-.543-5.7,1.629-.95.95-1.629,2.307-1.493,2.85,0,.136,0,.136.271.271.679.271,1.629.407,2.579-1.086a.705.705,0,0,1,.543-.271,2.515,2.515,0,0,0,.95-.271,6.615,6.615,0,0,1,.95-.407h.271c.136,0,.407.136.543.136.679.679,1.9,1.629,3.121,2.714a31.083,31.083,0,0,1,4.75,4.343h.136C194.243,159.2,192.614,154.588,191.936,153.367Z" transform="translate(-181.061 -151.467)"/>
      </g>
    </g>
    <g id="Group_27" data-name="Group 27" transform="translate(23.071 108.023)">
      <g id="Group_26" data-name="Group 26" transform="translate(0 0)">
        <path id="Path_33" data-name="Path 33" class="cls-1" d="M371.487,128a23.8,23.8,0,0,0-8.414,1.357l-.407.407a.816.816,0,0,0,.136.543,76.444,76.444,0,0,1,3.936,10.721.9.9,0,0,0,.679.543h4.071a.641.641,0,0,0,.679-.679V128.678A.641.641,0,0,0,371.487,128Z" transform="translate(-362.666 -128)"/>
      </g>
    </g>
    <g id="Group_29" data-name="Group 29" transform="translate(7.057 110.737)">
      <g id="Group_28" data-name="Group 28" transform="translate(0 0)">
        <path id="Path_34" data-name="Path 34" class="cls-1" d="M128.441,181.253c-.543-1.221-2.85-2.986-4.886-4.614-1.086-.95-2.171-1.764-2.986-2.443-.136.136-.407.136-.407.271a2.557,2.557,0,0,1-1.086.271,3.352,3.352,0,0,1-3.936,1.357,1.6,1.6,0,0,1-1.221-1.221c-.271-1.357.95-3.257,1.9-4.207h-2.714a69.194,69.194,0,0,1-2.171,8.143,15.343,15.343,0,0,0,1.493,1.493c2.579,2.171,5.564,4.343,6.107,4.75a3.857,3.857,0,0,0,1.629.543h.407l-2.171-2.171a.672.672,0,0,1,.95-.95l2.714,2.714c.271.271.543.136.814.136.407-.136.543-.407.679-.814l-3.121-3.121a.672.672,0,0,1,.95-.95l3.393,3.393a1.452,1.452,0,0,0,1.086,0c.136-.136.407-.271.543-.543l-3.8-3.8a.672.672,0,1,1,.95-.95l3.936,3.936a.9.9,0,0,0,.814-.136A.921.921,0,0,0,128.441,181.253Z" transform="translate(-110.934 -170.667)"/>
      </g>
    </g>
  </g>
</svg>
